<?xml version="1.0" encoding="iso-8859-1"?>
<!-- Uploaded to: SVG Repo, www.svgrepo.com, Generator: SVG Repo Mixer Tools -->
<svg fill="#000000" height="800px" width="800px" version="1.1" id="Layer_1" xmlns="http://www.w3.org/2000/svg" xmlns:xlink="http://www.w3.org/1999/xlink" 
	 viewBox="0 0 471 471" xml:space="preserve">
<g transform="translate(0 -540.36)">
	<g>
		<g>
			<path d="M174.51,877.06v-48.3c0-5.5-4.5-10-10-10s-10,4.5-10,10v48.3c-20.3,4.5-35.5,22.3-35.5,43.6c0,24.6,20.4,44.7,45.5,44.7
				c25.1,0,45.5-20,45.5-44.7C210.01,899.46,194.81,881.56,174.51,877.06z M164.51,945.36c-14.1,0-25.5-11.1-25.5-24.7
				c0-13.6,11.5-24.7,25.5-24.7s25.5,11.1,25.5,24.7C190.01,934.36,178.611,945.36,164.51,945.36z"/>
			<path d="M221.811,846.36v-250c0-30.9-25.6-56-57.1-56c-32,0-58,25.1-58,56v250c-30.5,24.3-42.8,64.1-30.6,100.9
				c5.9,18.6,17.5,34.7,33.5,46.3c16.1,11.6,35.1,17.8,55.1,17.8c40.3,0,76.7-26.4,88.6-64.3
				C264.71,910.26,252.011,870.36,221.811,846.36z M234.111,941.26c-9.3,29.5-37.9,50.2-69.5,50.2c-32.1,0-60-20.1-69.5-50.2
				c0-0.1,0-0.1,0-0.2c-10-30,1-62.8,27.4-81.5c2.6-1.9,4.2-5,4.2-8.2v-255c0-19.9,17.1-36,38-36v0c20.1,0,37.1,16.5,37,36.1v255
				c0,3.3,1.6,6.3,4.2,8.2C232.01,878.16,243.411,911.06,234.111,941.26z"/>
			<path d="M396.71,740.26c-3.9-4-10.2-4-14.1-0.2l-30.1,29.4v-114.2c0-5.5-4.5-10-10-10s-10,4.5-10,10v114.5l-31.1-29.8
				c-4-3.8-10.3-3.7-14.1,0.3c-3.8,4-3.7,10.3,0.3,14.1l48,46c1.9,1.9,4.4,2.8,6.9,2.8s5-0.9,7-2.8l47.1-46
				C400.51,750.56,400.51,744.16,396.71,740.26z"/>
		</g>
	</g>
</g>
</svg>